<svg width="209" height="445" viewBox="0 0 209 445" fill="none" xmlns="http://www.w3.org/2000/svg">
<rect x="156.5" y="50.5" width="48" height="178" fill="#C4C4C4" stroke="black"/>
<line x1="28" y1="50.5" x2="204" y2="50.5" stroke="black"/>
<line x1="205" y1="228.5" x2="85" y2="228.5" stroke="black"/>
<path d="M31.3536 50.6464C31.1583 50.4512 30.8417 50.4512 30.6465 50.6464L27.4645 53.8284C27.2692 54.0237 27.2692 54.3403 27.4645 54.5355C27.6597 54.7308 27.9763 54.7308 28.1716 54.5355L31 51.7071L33.8284 54.5355C34.0237 54.7308 34.3403 54.7308 34.5356 54.5355C34.7308 54.3403 34.7308 54.0237 34.5356 53.8284L31.3536 50.6464ZM31.5 445L31.5 51L30.5 51L30.5 445L31.5 445Z" fill="black"/>
<path d="M121.354 228.646C121.158 228.451 120.842 228.451 120.646 228.646L117.464 231.828C117.269 232.024 117.269 232.34 117.464 232.536C117.66 232.731 117.976 232.731 118.172 232.536L121 229.707L123.828 232.536C124.024 232.731 124.34 232.731 124.536 232.536C124.731 232.34 124.731 232.024 124.536 231.828L121.354 228.646ZM121.5 444L121.5 229L120.5 229L120.5 444L121.5 444Z" fill="black"/>
<path d="M17.2959 312.865C17.264 314.113 16.959 315.239 16.3811 316.245C15.7915 317.238 15.0035 318.01 14.017 318.561C13.0309 319.1 11.9321 319.354 10.7205 319.323C9.50885 319.292 8.42443 318.982 7.46718 318.394C6.51025 317.793 5.76877 316.982 5.24275 315.96C4.70505 314.926 4.45217 313.785 4.48412 312.537C4.51607 311.29 4.8207 310.175 5.39801 309.194C5.97564 308.2 6.76366 307.428 7.76208 306.877C8.74851 306.326 9.84752 306.066 11.0591 306.097C12.2707 306.128 13.361 306.445 14.3299 307.046C15.2869 307.646 16.0283 308.457 16.5544 309.479C17.0807 310.489 17.3279 311.618 17.2959 312.865ZM16.1083 312.835C16.1338 311.839 15.9349 310.934 15.5116 310.119C15.0764 309.303 14.4687 308.658 13.6886 308.181C12.8966 307.705 12.0087 307.454 11.025 307.429C10.0413 307.404 9.1478 307.609 8.34439 308.045C7.52898 308.48 6.88906 309.094 6.42462 309.886C5.94819 310.678 5.69723 311.572 5.67173 312.568C5.64623 313.563 5.85097 314.475 6.28593 315.302C6.7092 316.117 7.31672 316.769 8.10847 317.258C8.88854 317.734 9.77041 317.984 10.7541 318.01C11.7378 318.035 12.6373 317.83 13.4527 317.394C14.2564 316.947 14.8965 316.327 15.373 315.535C15.8377 314.731 16.0828 313.831 16.1083 312.835ZM3.45875 307.577L3.48594 306.516L18.3218 317.807L18.2941 318.887L3.45875 307.577ZM4.95821 298.242L5.08953 293.114C5.12363 291.782 5.42364 290.614 5.98958 289.608C6.54352 288.602 7.30755 287.829 8.28167 287.29C9.2438 286.75 10.3367 286.496 11.5603 286.527C12.7839 286.559 13.8683 286.869 14.8135 287.457C15.7468 288.045 16.4703 288.856 16.984 289.889C17.4857 290.922 17.7195 292.105 17.6854 293.436L17.5541 298.565L4.95821 298.242ZM16.5319 293.479C16.5602 292.375 16.369 291.404 15.9583 290.565C15.5357 289.726 14.9463 289.069 14.1902 288.593C13.4222 288.118 12.5343 287.867 11.5266 287.841C10.519 287.815 9.62541 288.02 8.84599 288.456C8.05457 288.892 7.43233 289.519 6.97928 290.335C6.51423 291.152 6.26757 292.112 6.23931 293.215L6.14393 296.94L16.4366 297.204L16.5319 293.479ZM8.81384 267.211C8.84425 266.023 9.20995 265.102 9.91093 264.448C10.6122 263.782 11.6286 263.466 12.9602 263.5L18.4484 263.64L18.4157 264.918L13.0534 264.78C12.0698 264.755 11.3139 264.976 10.7857 265.443C10.2579 265.897 9.98297 266.556 9.96086 267.42C9.93567 268.404 10.2218 269.185 10.8191 269.765C11.4045 270.344 12.231 270.647 13.2986 270.675L18.265 270.802L18.2323 272.079L12.8701 271.942C11.8864 271.917 11.1305 272.138 10.6024 272.604C10.0745 273.059 9.79943 273.724 9.77701 274.6C9.75212 275.571 10.0382 276.353 10.6353 276.944C11.2206 277.524 12.0471 277.827 13.1148 277.854L18.0812 277.981L18.0484 279.259L8.58355 279.017L8.61488 277.793L10.3423 277.837C9.7751 277.487 9.34323 277.007 9.04669 276.4C8.75015 275.792 8.61187 275.098 8.63183 274.318C8.65211 273.527 8.83756 272.847 9.1882 272.28C9.53914 271.701 10.0482 271.276 10.7153 271.005C10.1005 270.641 9.62736 270.13 9.29607 269.474C8.95308 268.805 8.79234 268.05 8.81384 267.211ZM9.08503 256.62C9.11667 255.385 9.45283 254.445 10.0935 253.801C10.7222 253.157 11.6424 252.851 12.854 252.882L18.72 253.032L18.6887 254.255L17.2132 254.218C17.6977 254.518 18.0706 254.954 18.3321 255.525C18.5939 256.084 18.7149 256.747 18.6953 257.515C18.6683 258.57 18.3948 259.404 17.875 260.014C17.3552 260.625 16.6814 260.92 15.8537 260.899C15.05 260.878 14.4096 260.574 13.9325 259.985C13.4557 259.385 13.2336 258.449 13.2661 257.178L13.3431 254.173L12.7673 254.158C11.9515 254.137 11.3279 254.349 10.8964 254.794C10.4528 255.239 10.2199 255.899 10.1974 256.775C10.1821 257.375 10.2693 257.953 10.4591 258.51C10.6369 259.067 10.8947 259.548 11.2324 259.952L10.264 260.504C9.86843 260.013 9.57127 259.43 9.37255 258.752C9.16182 258.075 9.06598 257.364 9.08503 256.62ZM17.6927 257.291C17.7111 256.571 17.565 255.949 17.2543 255.425C16.9316 254.901 16.4616 254.504 15.8443 254.237L14.2968 254.197L14.2207 257.166C14.1793 258.785 14.7224 259.61 15.85 259.638C16.4018 259.653 16.845 259.454 17.1797 259.042C17.5023 258.63 17.6733 258.047 17.6927 257.291ZM18.9633 243.534L14.9276 246.437L18.8089 249.562L18.772 251.001L14.0095 247.134L9.31175 250.579L9.34862 249.139L13.1282 246.391L9.49422 243.453L9.53016 242.05L14.0454 245.731L19.0006 242.076L18.9633 243.534Z" fill="#0075FF"/>
<path d="M110.296 359.865C110.264 361.113 109.959 362.239 109.381 363.245C108.791 364.238 108.003 365.01 107.017 365.561C106.031 366.1 104.932 366.354 103.72 366.323C102.509 366.292 101.424 365.982 100.467 365.394C99.5102 364.793 98.7688 363.982 98.2428 362.96C97.7051 361.926 97.4522 360.785 97.4841 359.537C97.5161 358.29 97.8207 357.175 98.398 356.194C98.9756 355.2 99.7637 354.428 100.762 353.877C101.749 353.326 102.848 353.066 104.059 353.097C105.271 353.128 106.361 353.445 107.33 354.046C108.287 354.646 109.028 355.457 109.554 356.479C110.081 357.489 110.328 358.618 110.296 359.865ZM109.108 359.835C109.134 358.839 108.935 357.934 108.512 357.119C108.076 356.303 107.469 355.658 106.689 355.181C105.897 354.705 105.009 354.454 104.025 354.429C103.041 354.404 102.148 354.609 101.344 355.045C100.529 355.48 99.8891 356.094 99.4246 356.886C98.9482 357.678 98.6972 358.572 98.6717 359.568C98.6462 360.563 98.851 361.475 99.2859 362.302C99.7092 363.117 100.317 363.769 101.108 364.258C101.889 364.734 102.77 364.984 103.754 365.01C104.738 365.035 105.637 364.83 106.453 364.394C107.256 363.947 107.897 363.327 108.373 362.535C108.838 361.731 109.083 360.831 109.108 359.835ZM96.4587 354.577L96.4859 353.516L111.322 364.807L111.294 365.887L96.4587 354.577ZM97.9582 345.242L98.0895 340.114C98.1236 338.782 98.4236 337.614 98.9896 336.608C99.5435 335.602 100.308 334.829 101.282 334.29C102.244 333.75 103.337 333.496 104.56 333.527C105.784 333.559 106.868 333.869 107.814 334.457C108.747 335.045 109.47 335.856 109.984 336.889C110.486 337.922 110.72 339.105 110.685 340.436L110.554 345.565L97.9582 345.242ZM109.532 340.479C109.56 339.375 109.369 338.404 108.958 337.565C108.536 336.726 107.946 336.069 107.19 335.593C106.422 335.118 105.534 334.867 104.527 334.841C103.519 334.815 102.625 335.02 101.846 335.456C101.055 335.892 100.432 336.519 99.9793 337.335C99.5142 338.152 99.2676 339.112 99.2393 340.215L99.1439 343.94L109.437 344.204L109.532 340.479ZM101.814 314.211C101.844 313.023 102.21 312.102 102.911 311.448C103.612 310.782 104.629 310.466 105.96 310.5L111.448 310.64L111.416 311.918L106.053 311.78C105.07 311.755 104.314 311.976 103.786 312.443C103.258 312.897 102.983 313.556 102.961 314.42C102.936 315.404 103.222 316.185 103.819 316.765C104.404 317.344 105.231 317.647 106.299 317.675L111.265 317.802L111.232 319.079L105.87 318.942C104.886 318.917 104.13 319.138 103.602 319.604C103.075 320.059 102.799 320.724 102.777 321.6C102.752 322.571 103.038 323.353 103.635 323.944C104.221 324.524 105.047 324.827 106.115 324.854L111.081 324.981L111.048 326.259L101.584 326.017L101.615 324.793L103.342 324.837C102.775 324.487 102.343 324.007 102.047 323.4C101.75 322.792 101.612 322.098 101.632 321.318C101.652 320.527 101.838 319.847 102.188 319.28C102.539 318.701 103.048 318.276 103.715 318.005C103.1 317.641 102.627 317.13 102.296 316.474C101.953 315.805 101.792 315.05 101.814 314.211ZM102.072 306.933L102.105 305.655L111.57 305.898L111.537 307.175L102.072 306.933ZM100.019 306.232C100.013 306.496 99.9171 306.716 99.7325 306.891C99.548 307.066 99.3297 307.151 99.0778 307.144C98.8379 307.138 98.6303 307.043 98.4549 306.858C98.2796 306.674 98.1953 306.45 98.2021 306.186C98.2088 305.922 98.3045 305.702 98.489 305.527C98.6616 305.351 98.8678 305.266 99.1078 305.273C99.3717 305.279 99.5913 305.375 99.7666 305.56C99.942 305.744 100.026 305.968 100.019 306.232ZM102.247 297.276C102.278 296.089 102.65 295.156 103.363 294.478C104.065 293.788 105.076 293.46 106.396 293.493L111.884 293.634L111.851 294.911L106.489 294.774C105.505 294.749 104.749 294.976 104.221 295.454C103.692 295.933 103.416 296.628 103.393 297.54C103.367 298.559 103.652 299.377 104.249 299.993C104.833 300.596 105.66 300.911 106.727 300.938L111.694 301.065L111.661 302.343L102.196 302.101L102.227 300.877L103.973 300.922C103.406 300.559 102.974 300.068 102.678 299.448C102.37 298.816 102.227 298.092 102.247 297.276Z" fill="#0075FF"/>
<line x1="156.5" y1="17" x2="156.5" y2="90" stroke="black"/>
<line x1="204.5" y1="17" x2="204.5" y2="90" stroke="black"/>
<line x1="151" y1="25.5" x2="209" y2="25.5" stroke="black"/>
<path d="M180.768 16.424C180.528 16.64 180.228 16.808 179.868 16.928C179.52 17.036 179.154 17.09 178.77 17.09C177.882 17.09 177.198 16.85 176.718 16.37C176.238 15.89 175.998 15.212 175.998 14.336V8.612H174.306V7.532H175.998V5.462H177.276V7.532H180.156V8.612H177.276V14.264C177.276 14.828 177.414 15.26 177.69 15.56C177.978 15.848 178.386 15.992 178.914 15.992C179.178 15.992 179.43 15.95 179.67 15.866C179.922 15.782 180.138 15.662 180.318 15.506L180.768 16.424Z" fill="#0075FF"/>
</svg>
