<svg width="209" height="445" viewBox="0 0 209 445" fill="none" xmlns="http://www.w3.org/2000/svg">
<rect x="156.5" y="50.5" width="48" height="178" fill="#C4C4C4" stroke="black"/>
<line x1="28" y1="50.5" x2="204" y2="50.5" stroke="black"/>
<line x1="205" y1="228.5" x2="85" y2="228.5" stroke="black"/>
<path d="M31.3536 50.6464C31.1583 50.4512 30.8417 50.4512 30.6465 50.6464L27.4645 53.8284C27.2692 54.0237 27.2692 54.3403 27.4645 54.5355C27.6597 54.7308 27.9763 54.7308 28.1716 54.5355L31 51.7071L33.8284 54.5355C34.0237 54.7308 34.3403 54.7308 34.5356 54.5355C34.7308 54.3403 34.7308 54.0237 34.5356 53.8284L31.3536 50.6464ZM31.5 445L31.5 51L30.5 51L30.5 445L31.5 445Z" fill="black"/>
<path d="M121.354 228.646C121.158 228.451 120.842 228.451 120.646 228.646L117.464 231.828C117.269 232.024 117.269 232.34 117.464 232.536C117.66 232.731 117.976 232.731 118.172 232.536L121 229.707L123.828 232.536C124.024 232.731 124.34 232.731 124.536 232.536C124.731 232.34 124.731 232.024 124.536 231.828L121.354 228.646ZM121.5 444L121.5 229L120.5 229L120.5 444L121.5 444Z" fill="black"/>
<path d="M13.8903 310.149L13.7106 317.167L17.0368 318.765L17.0013 320.15L4.55292 314.07L4.58655 312.756L17.3299 307.32L17.2939 308.724L13.8903 310.149ZM12.7982 310.607L5.95505 313.457L12.6434 316.653L12.7982 310.607ZM17.656 294.583L13.6204 297.487L17.5017 300.611L17.4648 302.051L12.7023 298.183L8.00453 301.628L8.04139 300.189L11.821 297.441L8.187 294.503L8.22294 293.099L12.7382 296.78L17.6934 293.126L17.656 294.583ZM11.5809 277.987C11.782 277.163 12.1582 276.537 12.7094 276.107C13.2489 275.665 13.9385 275.454 14.7782 275.476C15.8579 275.503 16.6813 275.926 17.2485 276.745C17.8041 277.552 18.0619 278.735 18.0219 280.294L17.8736 286.088L5.27769 285.766L5.41685 280.332C5.45279 278.928 5.7625 277.85 6.34597 277.096C6.92975 276.331 7.73748 275.962 8.76914 275.988C9.46491 276.006 10.0543 276.195 10.5372 276.555C11.0084 276.904 11.3563 277.381 11.5809 277.987ZM6.40943 284.462L10.9799 284.579L11.0827 280.567C11.1088 279.547 10.937 278.756 10.5672 278.195C10.1855 277.633 9.62275 277.342 8.87899 277.323C8.13524 277.304 7.56436 277.566 7.16635 278.108C6.75635 278.649 6.5383 279.43 6.51218 280.45L6.40943 284.462ZM16.9238 280.284C16.9527 279.156 16.7826 278.3 16.4135 277.714C16.0443 277.129 15.4519 276.825 14.6362 276.804C13.0647 276.764 12.2498 277.884 12.1914 280.163L12.0776 284.607L16.81 284.729L16.9238 280.284Z" fill="#0075FF"/>
<path d="M100.588 362.084C100.62 360.848 100.956 359.908 101.596 359.264C102.225 358.62 103.145 358.314 104.357 358.345L110.223 358.495L110.192 359.719L108.716 359.681C109.201 359.981 109.574 360.417 109.835 360.988C110.097 361.547 110.218 362.21 110.198 362.978C110.171 364.034 109.898 364.867 109.378 365.478C108.858 366.089 108.184 366.383 107.357 366.362C106.553 366.342 105.912 366.037 105.435 365.449C104.959 364.848 104.736 363.912 104.769 362.641L104.846 359.636L104.27 359.621C103.454 359.6 102.831 359.812 102.399 360.257C101.956 360.702 101.723 361.362 101.7 362.238C101.685 362.838 101.772 363.416 101.962 363.973C102.14 364.53 102.398 365.011 102.735 365.416L101.767 365.967C101.371 365.477 101.074 364.893 100.875 364.216C100.665 363.538 100.569 362.827 100.588 362.084ZM109.196 362.754C109.214 362.034 109.068 361.412 108.757 360.888C108.435 360.364 107.965 359.968 107.347 359.7L105.8 359.66L105.724 362.629C105.682 364.249 106.225 365.073 107.353 365.102C107.905 365.116 108.348 364.917 108.683 364.506C109.005 364.094 109.176 363.51 109.196 362.754ZM110.587 344.288L106.551 347.191L110.432 350.316L110.396 351.755L105.633 347.888L100.935 351.333L100.972 349.893L104.752 347.145L101.118 344.207L101.154 342.804L105.669 346.484L110.624 342.83L110.587 344.288ZM101.387 330.873C101.41 329.986 101.634 329.187 102.061 328.478C102.475 327.768 103.053 327.219 103.795 326.83C104.538 326.441 105.377 326.258 106.312 326.282C107.248 326.306 108.077 326.531 108.798 326.958C109.519 327.385 110.075 327.963 110.464 328.693C110.853 329.423 111.037 330.232 111.014 331.12C110.994 331.912 110.808 332.621 110.455 333.248C110.103 333.864 109.605 334.355 108.959 334.723L110.83 334.771L110.799 335.994L97.4475 335.652L97.4802 334.375L103.166 334.52C102.565 334.109 102.116 333.593 101.82 332.973C101.512 332.341 101.367 331.641 101.387 330.873ZM109.878 331.181C109.895 330.521 109.76 329.918 109.474 329.37C109.176 328.822 108.749 328.391 108.193 328.077C107.637 327.75 106.999 327.578 106.28 327.56C105.56 327.541 104.914 327.681 104.342 327.978C103.771 328.264 103.328 328.672 103.014 329.205C102.689 329.736 102.517 330.332 102.5 330.992C102.483 331.664 102.624 332.274 102.922 332.821C103.208 333.357 103.629 333.788 104.185 334.114C104.741 334.429 105.379 334.595 106.099 334.613C106.819 334.632 107.464 334.498 108.036 334.213C108.608 333.915 109.056 333.507 109.382 332.987C109.695 332.455 109.861 331.853 109.878 331.181Z" fill="#0075FF"/>
<line x1="156.5" y1="17" x2="156.5" y2="90" stroke="black"/>
<line x1="204.5" y1="17" x2="204.5" y2="90" stroke="black"/>
<line x1="151" y1="25.5" x2="209" y2="25.5" stroke="black"/>
<path d="M180.768 16.424C180.528 16.64 180.228 16.808 179.868 16.928C179.52 17.036 179.154 17.09 178.77 17.09C177.882 17.09 177.198 16.85 176.718 16.37C176.238 15.89 175.998 15.212 175.998 14.336V8.612H174.306V7.532H175.998V5.462H177.276V7.532H180.156V8.612H177.276V14.264C177.276 14.828 177.414 15.26 177.69 15.56C177.978 15.848 178.386 15.992 178.914 15.992C179.178 15.992 179.43 15.95 179.67 15.866C179.922 15.782 180.138 15.662 180.318 15.506L180.768 16.424Z" fill="#0075FF"/>
</svg>
