<svg width="491" height="478" viewBox="0 0 491 478" fill="none" xmlns="http://www.w3.org/2000/svg">
<rect x="215.189" y="234.604" width="282.688" height="27.7341" transform="rotate(13.7332 215.189 234.604)" fill="#C4C4C4" stroke="black"/>
<rect x="184.5" y="69.5" width="30" height="165" fill="#C4C4C4" stroke="black"/>
<line x1="184.5" y1="235" x2="184.5" y2="367" stroke="black"/>
<line x1="490.5" y1="304" x2="490.5" y2="367" stroke="black"/>
<line x1="216" y1="233.5" x2="311" y2="233.5" stroke="black"/>
<line x1="184" y1="69.5" x2="138" y2="69.5" stroke="black"/>
<line x1="184" y1="235.5" x2="133" y2="235.5" stroke="black"/>
<path d="M490.354 362.354C490.549 362.158 490.549 361.842 490.354 361.646L487.172 358.464C486.976 358.269 486.66 358.269 486.464 358.464C486.269 358.66 486.269 358.976 486.464 359.172L489.293 362L486.464 364.828C486.269 365.024 486.269 365.34 486.464 365.536C486.66 365.731 486.976 365.731 487.172 365.536L490.354 362.354ZM261 362.5L490 362.5V361.5L261 361.5V362.5Z" fill="black"/>
<path d="M183.646 361.646C183.451 361.842 183.451 362.158 183.646 362.354L186.828 365.536C187.024 365.731 187.34 365.731 187.536 365.536C187.731 365.34 187.731 365.024 187.536 364.828L184.707 362L187.536 359.172C187.731 358.976 187.731 358.66 187.536 358.464C187.34 358.269 187.024 358.269 186.828 358.464L183.646 361.646ZM264 361.5H184V362.5H264V361.5Z" fill="black"/>
<path d="M138.354 68.6464C138.158 68.4512 137.842 68.4512 137.646 68.6464L134.464 71.8284C134.269 72.0237 134.269 72.3403 134.464 72.5355C134.66 72.7308 134.976 72.7308 135.172 72.5355L138 69.7071L140.828 72.5355C141.024 72.7308 141.34 72.7308 141.536 72.5355C141.731 72.3403 141.731 72.0237 141.536 71.8284L138.354 68.6464ZM138.5 168L138.5 69L137.5 69L137.5 168L138.5 168Z" fill="black"/>
<path d="M137.646 235.354C137.842 235.549 138.158 235.549 138.354 235.354L141.536 232.172C141.731 231.976 141.731 231.66 141.536 231.464C141.34 231.269 141.024 231.269 140.828 231.464L138 234.293L135.172 231.464C134.976 231.269 134.66 231.269 134.464 231.464C134.269 231.66 134.269 231.976 134.464 232.172L137.646 235.354ZM137.5 168L137.5 235L138.5 235L138.5 168L137.5 168Z" fill="black"/>
<path d="M298 256L300 245.892L298 234" stroke="black"/>
<path d="M307.95 250.18C306.774 250.18 305.82 249.766 305.088 248.938C304.356 248.098 303.99 246.856 303.99 245.212C303.99 243.58 304.35 242.332 305.07 241.468C305.79 240.604 306.798 240.172 308.094 240.172C308.802 240.172 309.39 240.298 309.858 240.55C310.338 240.79 310.734 241.156 311.046 241.648H311.154C311.214 241.444 311.292 241.222 311.388 240.982C311.484 240.742 311.598 240.532 311.73 240.352H312.972C312.888 240.616 312.81 240.964 312.738 241.396C312.666 241.828 312.612 242.284 312.576 242.764C312.54 243.244 312.522 243.7 312.522 244.132V247.876C312.522 248.248 312.594 248.512 312.738 248.668C312.882 248.812 313.056 248.884 313.26 248.884C313.356 248.884 313.458 248.872 313.566 248.848C313.674 248.824 313.752 248.806 313.8 248.794V249.946C313.716 249.994 313.578 250.042 313.386 250.09C313.194 250.15 312.996 250.18 312.792 250.18C312.348 250.18 311.982 250.072 311.694 249.856C311.418 249.64 311.214 249.256 311.082 248.704H310.956C310.68 249.112 310.314 249.46 309.858 249.748C309.402 250.036 308.766 250.18 307.95 250.18ZM308.22 248.866C309.216 248.866 309.918 248.584 310.326 248.02C310.746 247.444 310.956 246.538 310.956 245.302V245.194C310.956 243.994 310.758 243.082 310.362 242.458C309.978 241.822 309.258 241.504 308.202 241.504C307.326 241.504 306.678 241.822 306.258 242.458C305.838 243.094 305.628 244.018 305.628 245.23C305.628 246.43 305.832 247.336 306.24 247.948C306.66 248.56 307.32 248.866 308.22 248.866ZM319.865 244.564H324.581V245.68H319.865V244.564ZM340.233 240.532L335.499 251.134C335.115 252.022 334.671 252.652 334.167 253.024C333.663 253.396 333.057 253.582 332.349 253.582C331.893 253.582 331.467 253.51 331.071 253.366C330.675 253.222 330.333 253.006 330.045 252.718L330.639 251.764C331.119 252.244 331.695 252.484 332.367 252.484C332.799 252.484 333.165 252.364 333.465 252.124C333.777 251.884 334.065 251.476 334.329 250.9L334.743 249.982L330.513 240.532H331.845L335.409 248.578L338.973 240.532H340.233ZM348.92 241.666H343.502V250H342.224V240.532H348.92V241.666ZM354.234 250.09C353.322 250.09 352.5 249.886 351.768 249.478C351.036 249.058 350.46 248.482 350.04 247.75C349.62 247.018 349.41 246.19 349.41 245.266C349.41 244.342 349.62 243.514 350.04 242.782C350.46 242.05 351.036 241.48 351.768 241.072C352.5 240.664 353.322 240.46 354.234 240.46C355.146 240.46 355.968 240.664 356.7 241.072C357.432 241.48 358.002 242.05 358.41 242.782C358.83 243.514 359.04 244.342 359.04 245.266C359.04 246.19 358.83 247.018 358.41 247.75C358.002 248.482 357.432 249.058 356.7 249.478C355.968 249.886 355.146 250.09 354.234 250.09ZM354.234 248.956C354.906 248.956 355.506 248.806 356.034 248.506C356.574 248.194 356.994 247.756 357.294 247.192C357.594 246.628 357.744 245.986 357.744 245.266C357.744 244.546 357.594 243.904 357.294 243.34C356.994 242.776 356.574 242.344 356.034 242.044C355.506 241.732 354.906 241.576 354.234 241.576C353.562 241.576 352.956 241.732 352.416 242.044C351.888 242.344 351.468 242.776 351.156 243.34C350.856 243.904 350.706 244.546 350.706 245.266C350.706 245.986 350.856 246.628 351.156 247.192C351.468 247.756 351.888 248.194 352.416 248.506C352.956 248.806 353.562 248.956 354.234 248.956ZM369.458 240.532V250H368.18V241.666H363.644L363.518 244.006C363.422 245.974 363.194 247.486 362.834 248.542C362.474 249.598 361.832 250.126 360.908 250.126C360.656 250.126 360.35 250.078 359.99 249.982L360.08 248.884C360.296 248.932 360.446 248.956 360.53 248.956C361.022 248.956 361.394 248.728 361.646 248.272C361.898 247.816 362.066 247.252 362.15 246.58C362.234 245.908 362.306 245.02 362.366 243.916L362.528 240.532H369.458Z" fill="#0075FF"/>
<path d="M331.052 371.4H332.384V382.848H339.44V384H331.052V371.4Z" fill="#0075FF"/>
<path d="M120.094 157.46C121.33 157.46 122.278 157.772 122.938 158.396C123.598 159.008 123.928 159.92 123.928 161.132V167H122.704V165.524C122.416 166.016 121.99 166.4 121.426 166.676C120.874 166.952 120.214 167.09 119.446 167.09C118.39 167.09 117.55 166.838 116.926 166.334C116.302 165.83 115.99 165.164 115.99 164.336C115.99 163.532 116.278 162.884 116.854 162.392C117.442 161.9 118.372 161.654 119.644 161.654H122.65V161.078C122.65 160.262 122.422 159.644 121.966 159.224C121.51 158.792 120.844 158.576 119.968 158.576C119.368 158.576 118.792 158.678 118.24 158.882C117.688 159.074 117.214 159.344 116.818 159.692L116.242 158.738C116.722 158.33 117.298 158.018 117.97 157.802C118.642 157.574 119.35 157.46 120.094 157.46ZM119.644 166.082C120.364 166.082 120.982 165.92 121.498 165.596C122.014 165.26 122.398 164.78 122.65 164.156V162.608H119.68C118.06 162.608 117.25 163.172 117.25 164.3C117.25 164.852 117.46 165.29 117.88 165.614C118.3 165.926 118.888 166.082 119.644 166.082Z" fill="#0075FF"/>
<line x1="17" y1="69.5" x2="138" y2="69.5" stroke="black"/>
<path d="M28.3536 68.6464C28.1583 68.4512 27.8417 68.4512 27.6465 68.6464L24.4645 71.8284C24.2692 72.0237 24.2692 72.3403 24.4645 72.5355C24.6597 72.7308 24.9763 72.7308 25.1716 72.5355L28 69.7071L30.8284 72.5355C31.0237 72.7308 31.3403 72.7308 31.5356 72.5355C31.7308 72.3403 31.7308 72.0237 31.5356 71.8284L28.3536 68.6464ZM28.5 478L28.5 69L27.5 69L27.5 478L28.5 478Z" fill="black"/>
<path d="M4.4 470.948L4.4 465.818C4.4 464.486 4.67 463.31 5.21 462.29C5.738 461.27 6.482 460.478 7.442 459.914C8.39 459.35 9.476 459.068 10.7 459.068C11.924 459.068 13.016 459.35 13.976 459.914C14.924 460.478 15.668 461.27 16.208 462.29C16.736 463.31 17 464.486 17 465.818L17 470.948L4.4 470.948ZM15.848 465.89C15.848 464.786 15.632 463.82 15.2 462.992C14.756 462.164 14.15 461.522 13.382 461.066C12.602 460.61 11.708 460.382 10.7 460.382C9.692 460.382 8.804 460.61 8.036 461.066C7.256 461.522 6.65 462.164 6.218 462.992C5.774 463.82 5.552 464.786 5.552 465.89L5.552 469.616L15.848 469.616L15.848 465.89ZM11.564 452.338L11.564 447.622L12.68 447.622L12.68 452.338L11.564 452.338ZM15.884 430.782L19.286 430.782L19.286 431.988L17 431.988L17 440.466L19.286 440.466L19.286 441.672L15.884 441.672L15.884 441.132C15.848 440.496 15.38 440.064 14.48 439.836C13.58 439.608 12.32 439.452 10.7 439.368L7.532 439.242L7.532 432.258L15.884 432.258L15.884 430.782ZM10.772 438.198C12.116 438.258 13.226 438.372 14.102 438.54C14.966 438.708 15.56 439.008 15.884 439.44L15.884 433.536L8.666 433.536L8.666 438.09L10.772 438.198ZM7.532 428.291L7.532 427.013L15.056 427.013L7.532 420.695L7.532 419.561L17 419.561L17 420.839L9.476 420.839L17 427.139L17 428.291L7.532 428.291ZM7.46 412.641C7.46 411.405 7.772 410.457 8.396 409.797C9.008 409.137 9.92 408.807 11.132 408.807L17 408.807L17 410.031L15.524 410.031C16.016 410.319 16.4 410.745 16.676 411.309C16.952 411.861 17.09 412.521 17.09 413.289C17.09 414.345 16.838 415.185 16.334 415.809C15.83 416.433 15.164 416.745 14.336 416.745C13.532 416.745 12.884 416.457 12.392 415.881C11.9 415.293 11.654 414.363 11.654 413.091L11.654 410.085L11.078 410.085C10.262 410.085 9.644 410.313 9.224 410.769C8.792 411.225 8.576 411.891 8.576 412.767C8.576 413.367 8.678 413.943 8.882 414.495C9.074 415.047 9.344 415.521 9.692 415.917L8.738 416.493C8.33 416.013 8.018 415.437 7.802 414.765C7.574 414.093 7.46 413.385 7.46 412.641ZM16.082 413.091C16.082 412.371 15.92 411.753 15.596 411.237C15.26 410.721 14.78 410.337 14.156 410.085L12.608 410.085L12.608 413.055C12.608 414.675 13.172 415.485 14.3 415.485C14.852 415.485 15.29 415.275 15.614 414.855C15.926 414.435 16.082 413.847 16.082 413.091ZM7.532 394.821L17 394.821L17 395.991L9.512 395.991L15.848 399.825L15.848 400.401L9.494 404.235L17 404.235L17 405.405L7.532 405.405L7.532 404.109L14.354 400.095L7.532 396.009L7.532 394.821ZM12.662 382.904L12.662 390.824C13.646 390.752 14.444 390.374 15.056 389.69C15.656 389.006 15.956 388.142 15.956 387.098C15.956 386.51 15.854 385.97 15.65 385.478C15.434 384.986 15.122 384.56 14.714 384.2L15.542 383.48C16.046 383.9 16.43 384.428 16.694 385.064C16.958 385.688 17.09 386.378 17.09 387.134C17.09 388.106 16.886 388.97 16.478 389.726C16.058 390.47 15.482 391.052 14.75 391.472C14.018 391.892 13.19 392.102 12.266 392.102C11.342 392.102 10.514 391.904 9.782 391.508C9.05 391.1 8.48 390.548 8.072 389.852C7.664 389.144 7.46 388.352 7.46 387.476C7.46 386.6 7.664 385.814 8.072 385.118C8.48 384.422 9.05 383.876 9.782 383.48C10.502 383.084 11.33 382.886 12.266 382.886L12.662 382.904ZM8.558 387.476C8.558 388.388 8.852 389.156 9.44 389.78C10.016 390.392 10.772 390.74 11.708 390.824L11.708 384.11C10.772 384.194 10.016 384.548 9.44 385.172C8.852 385.784 8.558 386.552 8.558 387.476ZM8.666 373.819L8.666 377.401L17 377.401L17 378.679L8.666 378.679L8.666 382.261L7.532 382.261L7.532 373.819L8.666 373.819ZM7.45999 367.093C7.45999 366.205 7.66399 365.401 8.07199 364.681C8.46799 363.961 9.03199 363.397 9.764 362.989C10.496 362.581 11.33 362.377 12.266 362.377C13.214 362.377 14.054 362.581 14.786 362.989C15.518 363.397 16.088 363.961 16.496 364.681C16.892 365.389 17.09 366.193 17.09 367.093C17.09 367.861 16.934 368.557 16.622 369.181C16.298 369.793 15.83 370.297 15.218 370.693L20.492 370.693L20.492 371.971L7.532 371.971L7.532 370.747L9.404 370.747C8.77999 370.363 8.29999 369.859 7.96399 369.235C7.62799 368.599 7.45999 367.885 7.45999 367.093ZM15.956 367.183C15.956 366.523 15.806 365.923 15.506 365.383C15.194 364.843 14.756 364.423 14.192 364.123C13.628 363.811 12.986 363.655 12.266 363.655C11.546 363.655 10.91 363.811 10.358 364.123C9.794 364.423 9.35599 364.843 9.04399 365.383C8.73199 365.923 8.57599 366.523 8.57599 367.183C8.57599 367.855 8.73199 368.461 9.04399 369.001C9.356 369.529 9.794 369.949 10.358 370.261C10.91 370.561 11.546 370.711 12.266 370.711C12.986 370.711 13.628 370.561 14.192 370.261C14.756 369.949 15.194 369.529 15.506 369.001C15.806 368.461 15.956 367.855 15.956 367.183Z" fill="#0075FF"/>
<line x1="184.5" y1="17" x2="184.5" y2="70" stroke="black"/>
<line x1="214.5" y1="17" x2="214.5" y2="70" stroke="black"/>
<line x1="184" y1="26.5" x2="214" y2="26.5" stroke="black"/>
<path d="M201.768 16.424C201.528 16.64 201.228 16.808 200.868 16.928C200.52 17.036 200.154 17.09 199.77 17.09C198.882 17.09 198.198 16.85 197.718 16.37C197.238 15.89 196.998 15.212 196.998 14.336V8.612H195.306V7.532H196.998V5.462H198.276V7.532H201.156V8.612H198.276V14.264C198.276 14.828 198.414 15.26 198.69 15.56C198.978 15.848 199.386 15.992 199.914 15.992C200.178 15.992 200.43 15.95 200.67 15.866C200.922 15.782 201.138 15.662 201.318 15.506L201.768 16.424ZM208.103 11.564H212.819V12.68H208.103V11.564ZM227.085 8.666H223.503V17H222.225V8.666H218.643V7.532H227.085V8.666ZM232.4 17.09C231.488 17.09 230.666 16.886 229.934 16.478C229.202 16.058 228.626 15.482 228.206 14.75C227.786 14.018 227.576 13.19 227.576 12.266C227.576 11.342 227.786 10.514 228.206 9.782C228.626 9.05 229.202 8.48 229.934 8.072C230.666 7.664 231.488 7.46 232.4 7.46C233.312 7.46 234.134 7.664 234.866 8.072C235.598 8.48 236.168 9.05 236.576 9.782C236.996 10.514 237.206 11.342 237.206 12.266C237.206 13.19 236.996 14.018 236.576 14.75C236.168 15.482 235.598 16.058 234.866 16.478C234.134 16.886 233.312 17.09 232.4 17.09ZM232.4 15.956C233.072 15.956 233.672 15.806 234.2 15.506C234.74 15.194 235.16 14.756 235.46 14.192C235.76 13.628 235.91 12.986 235.91 12.266C235.91 11.546 235.76 10.904 235.46 10.34C235.16 9.776 234.74 9.344 234.2 9.044C233.672 8.732 233.072 8.576 232.4 8.576C231.728 8.576 231.122 8.732 230.582 9.044C230.054 9.344 229.634 9.776 229.322 10.34C229.022 10.904 228.872 11.546 228.872 12.266C228.872 12.986 229.022 13.628 229.322 14.192C229.634 14.756 230.054 15.194 230.582 15.506C231.122 15.806 231.728 15.956 232.4 15.956ZM247.624 7.532V17H246.346V8.666H241.81L241.684 11.006C241.588 12.974 241.36 14.486 241 15.542C240.64 16.598 239.998 17.126 239.074 17.126C238.822 17.126 238.516 17.078 238.156 16.982L238.246 15.884C238.462 15.932 238.612 15.956 238.696 15.956C239.188 15.956 239.56 15.728 239.812 15.272C240.064 14.816 240.232 14.252 240.316 13.58C240.4 12.908 240.472 12.02 240.532 10.916L240.694 7.532H247.624ZM264.325 7.532V17H251.257V7.532H252.535V15.884H257.179V7.532H258.457V15.884H263.047V7.532H264.325ZM265.783 15.884V19.07H264.577V17H262.975V15.884H265.783ZM267.974 7.532H269.252V15.056L275.57 7.532H276.704V17H275.426V9.476L269.126 17H267.974V7.532ZM280.367 7.532H281.645V11.726H287.603V7.532H288.881V17H287.603V12.824H281.645V17H280.367V7.532ZM295.771 7.46C297.007 7.46 297.955 7.772 298.615 8.396C299.275 9.008 299.605 9.92 299.605 11.132V17H298.381V15.524C298.093 16.016 297.667 16.4 297.103 16.676C296.551 16.952 295.891 17.09 295.123 17.09C294.067 17.09 293.227 16.838 292.603 16.334C291.979 15.83 291.667 15.164 291.667 14.336C291.667 13.532 291.955 12.884 292.531 12.392C293.119 11.9 294.049 11.654 295.321 11.654H298.327V11.078C298.327 10.262 298.099 9.644 297.643 9.224C297.187 8.792 296.521 8.576 295.645 8.576C295.045 8.576 294.469 8.678 293.917 8.882C293.365 9.074 292.891 9.344 292.495 9.692L291.919 8.738C292.399 8.33 292.975 8.018 293.647 7.802C294.319 7.574 295.027 7.46 295.771 7.46ZM295.321 16.082C296.041 16.082 296.659 15.92 297.175 15.596C297.691 15.26 298.075 14.78 298.327 14.156V12.608H295.357C293.737 12.608 292.927 13.172 292.927 14.3C292.927 14.852 293.137 15.29 293.557 15.614C293.977 15.926 294.565 16.082 295.321 16.082ZM315.458 7.532V17H314.18V8.666H309.644L309.518 11.006C309.422 12.974 309.194 14.486 308.834 15.542C308.474 16.598 307.832 17.126 306.908 17.126C306.656 17.126 306.35 17.078 305.99 16.982L306.08 15.884C306.296 15.932 306.446 15.956 306.53 15.956C307.022 15.956 307.394 15.728 307.646 15.272C307.898 14.816 308.066 14.252 308.15 13.58C308.234 12.908 308.306 12.02 308.366 10.916L308.528 7.532H315.458ZM319.091 7.532H320.369V15.056L326.687 7.532H327.821V17H326.543V9.476L320.243 17H319.091V7.532ZM335.444 17.09C334.508 17.09 333.668 16.886 332.924 16.478C332.192 16.07 331.616 15.5 331.196 14.768C330.776 14.024 330.566 13.19 330.566 12.266C330.566 11.342 330.776 10.514 331.196 9.782C331.616 9.05 332.192 8.48 332.924 8.072C333.668 7.664 334.508 7.46 335.444 7.46C336.26 7.46 336.986 7.622 337.622 7.946C338.27 8.258 338.78 8.72 339.152 9.332L338.198 9.98C337.886 9.512 337.49 9.164 337.01 8.936C336.53 8.696 336.008 8.576 335.444 8.576C334.76 8.576 334.142 8.732 333.59 9.044C333.05 9.344 332.624 9.776 332.312 10.34C332.012 10.904 331.862 11.546 331.862 12.266C331.862 12.998 332.012 13.646 332.312 14.21C332.624 14.762 333.05 15.194 333.59 15.506C334.142 15.806 334.76 15.956 335.444 15.956C336.008 15.956 336.53 15.842 337.01 15.614C337.49 15.386 337.886 15.038 338.198 14.57L339.152 15.218C338.78 15.83 338.27 16.298 337.622 16.622C336.974 16.934 336.248 17.09 335.444 17.09ZM348.111 8.666H344.529V17H343.251V8.666H339.669V7.532H348.111V8.666ZM353.217 7.46C354.453 7.46 355.401 7.772 356.061 8.396C356.721 9.008 357.051 9.92 357.051 11.132V17H355.827V15.524C355.539 16.016 355.113 16.4 354.549 16.676C353.997 16.952 353.337 17.09 352.569 17.09C351.513 17.09 350.673 16.838 350.049 16.334C349.425 15.83 349.113 15.164 349.113 14.336C349.113 13.532 349.401 12.884 349.977 12.392C350.565 11.9 351.495 11.654 352.767 11.654H355.773V11.078C355.773 10.262 355.545 9.644 355.089 9.224C354.633 8.792 353.967 8.576 353.091 8.576C352.491 8.576 351.915 8.678 351.363 8.882C350.811 9.074 350.337 9.344 349.941 9.692L349.365 8.738C349.845 8.33 350.421 8.018 351.093 7.802C351.765 7.574 352.473 7.46 353.217 7.46ZM352.767 16.082C353.487 16.082 354.105 15.92 354.621 15.596C355.137 15.26 355.521 14.78 355.773 14.156V12.608H352.803C351.183 12.608 350.373 13.172 350.373 14.3C350.373 14.852 350.583 15.29 351.003 15.614C351.423 15.926 352.011 16.082 352.767 16.082Z" fill="#0075FF"/>
</svg>
