<svg width="495" height="478" viewBox="0 0 495 478" fill="none" xmlns="http://www.w3.org/2000/svg">
<rect x="219.189" y="234.604" width="282.688" height="27.7341" transform="rotate(13.7332 219.189 234.604)" fill="#C4C4C4" stroke="black"/>
<rect x="188.5" y="69.5" width="30" height="165" fill="#C4C4C4" stroke="black"/>
<line x1="188.5" y1="235" x2="188.5" y2="367" stroke="black"/>
<line x1="494.5" y1="304" x2="494.5" y2="367" stroke="black"/>
<line x1="220" y1="233.5" x2="315" y2="233.5" stroke="black"/>
<line x1="188" y1="69.5" x2="142" y2="69.5" stroke="black"/>
<line x1="188" y1="235.5" x2="137" y2="235.5" stroke="black"/>
<path d="M494.354 362.354C494.549 362.158 494.549 361.842 494.354 361.646L491.172 358.464C490.976 358.269 490.66 358.269 490.464 358.464C490.269 358.66 490.269 358.976 490.464 359.172L493.293 362L490.464 364.828C490.269 365.024 490.269 365.34 490.464 365.536C490.66 365.731 490.976 365.731 491.172 365.536L494.354 362.354ZM265 362.5L494 362.5V361.5L265 361.5V362.5Z" fill="black"/>
<path d="M187.646 361.646C187.451 361.842 187.451 362.158 187.646 362.354L190.828 365.536C191.024 365.731 191.34 365.731 191.536 365.536C191.731 365.34 191.731 365.024 191.536 364.828L188.707 362L191.536 359.172C191.731 358.976 191.731 358.66 191.536 358.464C191.34 358.269 191.024 358.269 190.828 358.464L187.646 361.646ZM268 361.5H188V362.5H268V361.5Z" fill="black"/>
<path d="M142.354 68.6464C142.158 68.4512 141.842 68.4512 141.646 68.6464L138.464 71.8284C138.269 72.0237 138.269 72.3403 138.464 72.5355C138.66 72.7308 138.976 72.7308 139.172 72.5355L142 69.7071L144.828 72.5355C145.024 72.7308 145.34 72.7308 145.536 72.5355C145.731 72.3403 145.731 72.0237 145.536 71.8284L142.354 68.6464ZM142.5 168L142.5 69L141.5 69L141.5 168L142.5 168Z" fill="black"/>
<path d="M141.646 235.354C141.842 235.549 142.158 235.549 142.354 235.354L145.536 232.172C145.731 231.976 145.731 231.66 145.536 231.464C145.34 231.269 145.024 231.269 144.828 231.464L142 234.293L139.172 231.464C138.976 231.269 138.66 231.269 138.464 231.464C138.269 231.66 138.269 231.976 138.464 232.172L141.646 235.354ZM141.5 168L141.5 235L142.5 235L142.5 168L141.5 168Z" fill="black"/>
<path d="M302 256L304 245.892L302 234" stroke="black"/>
<path d="M311.95 250.18C310.774 250.18 309.82 249.766 309.088 248.938C308.356 248.098 307.99 246.856 307.99 245.212C307.99 243.58 308.35 242.332 309.07 241.468C309.79 240.604 310.798 240.172 312.094 240.172C312.802 240.172 313.39 240.298 313.858 240.55C314.338 240.79 314.734 241.156 315.046 241.648H315.154C315.214 241.444 315.292 241.222 315.388 240.982C315.484 240.742 315.598 240.532 315.73 240.352H316.972C316.888 240.616 316.81 240.964 316.738 241.396C316.666 241.828 316.612 242.284 316.576 242.764C316.54 243.244 316.522 243.7 316.522 244.132V247.876C316.522 248.248 316.594 248.512 316.738 248.668C316.882 248.812 317.056 248.884 317.26 248.884C317.356 248.884 317.458 248.872 317.566 248.848C317.674 248.824 317.752 248.806 317.8 248.794V249.946C317.716 249.994 317.578 250.042 317.386 250.09C317.194 250.15 316.996 250.18 316.792 250.18C316.348 250.18 315.982 250.072 315.694 249.856C315.418 249.64 315.214 249.256 315.082 248.704H314.956C314.68 249.112 314.314 249.46 313.858 249.748C313.402 250.036 312.766 250.18 311.95 250.18ZM312.22 248.866C313.216 248.866 313.918 248.584 314.326 248.02C314.746 247.444 314.956 246.538 314.956 245.302V245.194C314.956 243.994 314.758 243.082 314.362 242.458C313.978 241.822 313.258 241.504 312.202 241.504C311.326 241.504 310.678 241.822 310.258 242.458C309.838 243.094 309.628 244.018 309.628 245.23C309.628 246.43 309.832 247.336 310.24 247.948C310.66 248.56 311.32 248.866 312.22 248.866ZM323.865 244.564H328.581V245.68H323.865V244.564ZM344.233 240.532L339.499 251.134C339.115 252.022 338.671 252.652 338.167 253.024C337.663 253.396 337.057 253.582 336.349 253.582C335.893 253.582 335.467 253.51 335.071 253.366C334.675 253.222 334.333 253.006 334.045 252.718L334.639 251.764C335.119 252.244 335.695 252.484 336.367 252.484C336.799 252.484 337.165 252.364 337.465 252.124C337.777 251.884 338.065 251.476 338.329 250.9L338.743 249.982L334.513 240.532H335.845L339.409 248.578L342.973 240.532H344.233ZM352.92 241.666H347.502V250H346.224V240.532H352.92V241.666ZM358.234 250.09C357.322 250.09 356.5 249.886 355.768 249.478C355.036 249.058 354.46 248.482 354.04 247.75C353.62 247.018 353.41 246.19 353.41 245.266C353.41 244.342 353.62 243.514 354.04 242.782C354.46 242.05 355.036 241.48 355.768 241.072C356.5 240.664 357.322 240.46 358.234 240.46C359.146 240.46 359.968 240.664 360.7 241.072C361.432 241.48 362.002 242.05 362.41 242.782C362.83 243.514 363.04 244.342 363.04 245.266C363.04 246.19 362.83 247.018 362.41 247.75C362.002 248.482 361.432 249.058 360.7 249.478C359.968 249.886 359.146 250.09 358.234 250.09ZM358.234 248.956C358.906 248.956 359.506 248.806 360.034 248.506C360.574 248.194 360.994 247.756 361.294 247.192C361.594 246.628 361.744 245.986 361.744 245.266C361.744 244.546 361.594 243.904 361.294 243.34C360.994 242.776 360.574 242.344 360.034 242.044C359.506 241.732 358.906 241.576 358.234 241.576C357.562 241.576 356.956 241.732 356.416 242.044C355.888 242.344 355.468 242.776 355.156 243.34C354.856 243.904 354.706 244.546 354.706 245.266C354.706 245.986 354.856 246.628 355.156 247.192C355.468 247.756 355.888 248.194 356.416 248.506C356.956 248.806 357.562 248.956 358.234 248.956ZM373.458 240.532V250H372.18V241.666H367.644L367.518 244.006C367.422 245.974 367.194 247.486 366.834 248.542C366.474 249.598 365.832 250.126 364.908 250.126C364.656 250.126 364.35 250.078 363.99 249.982L364.08 248.884C364.296 248.932 364.446 248.956 364.53 248.956C365.022 248.956 365.394 248.728 365.646 248.272C365.898 247.816 366.066 247.252 366.15 246.58C366.234 245.908 366.306 245.02 366.366 243.916L366.528 240.532H373.458Z" fill="#0075FF"/>
<path d="M335.052 371.4H336.384V382.848H343.44V384H335.052V371.4Z" fill="#0075FF"/>
<path d="M124.094 157.46C125.33 157.46 126.278 157.772 126.938 158.396C127.598 159.008 127.928 159.92 127.928 161.132V167H126.704V165.524C126.416 166.016 125.99 166.4 125.426 166.676C124.874 166.952 124.214 167.09 123.446 167.09C122.39 167.09 121.55 166.838 120.926 166.334C120.302 165.83 119.99 165.164 119.99 164.336C119.99 163.532 120.278 162.884 120.854 162.392C121.442 161.9 122.372 161.654 123.644 161.654H126.65V161.078C126.65 160.262 126.422 159.644 125.966 159.224C125.51 158.792 124.844 158.576 123.968 158.576C123.368 158.576 122.792 158.678 122.24 158.882C121.688 159.074 121.214 159.344 120.818 159.692L120.242 158.738C120.722 158.33 121.298 158.018 121.97 157.802C122.642 157.574 123.35 157.46 124.094 157.46ZM123.644 166.082C124.364 166.082 124.982 165.92 125.498 165.596C126.014 165.26 126.398 164.78 126.65 164.156V162.608H123.68C122.06 162.608 121.25 163.172 121.25 164.3C121.25 164.852 121.46 165.29 121.88 165.614C122.3 165.926 122.888 166.082 123.644 166.082Z" fill="#0075FF"/>
<line x1="21" y1="69.5" x2="142" y2="69.5" stroke="black"/>
<path d="M32.3536 68.6464C32.1583 68.4512 31.8417 68.4512 31.6465 68.6464L28.4645 71.8284C28.2692 72.0237 28.2692 72.3403 28.4645 72.5355C28.6597 72.7308 28.9763 72.7308 29.1716 72.5355L32 69.7071L34.8284 72.5355C35.0237 72.7308 35.3403 72.7308 35.5356 72.5355C35.7308 72.3403 35.7308 72.0237 35.5356 71.8284L32.3536 68.6464ZM32.5 478L32.5 69L31.5 69L31.5 478L32.5 478Z" fill="black"/>
<path d="M13.634 310.046L13.634 317.066L17 318.578L17 319.964L4.4 314.204L4.4 312.89L17 307.13L17 308.534L13.634 310.046ZM12.554 310.532L5.786 313.556L12.554 316.58L12.554 310.532ZM17 294.575L13.04 297.581L17 300.605L17 302.045L12.14 298.301L7.532 301.865L7.532 300.425L11.24 297.581L7.532 294.737L7.532 293.333L12.14 296.897L17 293.117L17 294.575ZM10.502 278.071C10.682 277.243 11.042 276.607 11.582 276.163C12.11 275.707 12.794 275.479 13.634 275.479C14.714 275.479 15.548 275.881 16.136 276.685C16.712 277.477 17 278.653 17 280.213L17 286.009L4.4 286.009L4.4 280.573C4.4 279.169 4.682 278.083 5.246 277.315C5.81 276.535 6.608 276.145 7.64 276.145C8.336 276.145 8.93 276.319 9.422 276.667C9.902 277.003 10.262 277.471 10.502 278.071ZM5.498 284.677L10.07 284.677L10.07 280.663C10.07 279.643 9.878 278.857 9.494 278.305C9.098 277.753 8.528 277.477 7.784 277.477C7.04 277.477 6.476 277.753 6.092 278.305C5.696 278.857 5.498 279.643 5.498 280.663L5.498 284.677ZM15.902 280.231C15.902 279.103 15.71 278.251 15.326 277.675C14.942 277.099 14.342 276.811 13.526 276.811C11.954 276.811 11.168 277.951 11.168 280.231L11.168 284.677L15.902 284.677L15.902 280.231Z" fill="#0075FF"/>
<line x1="188.5" y1="17" x2="188.5" y2="70" stroke="black"/>
<line x1="218.5" y1="17" x2="218.5" y2="70" stroke="black"/>
<line x1="188" y1="26.5" x2="218" y2="26.5" stroke="black"/>
<path d="M205.768 16.424C205.528 16.64 205.228 16.808 204.868 16.928C204.52 17.036 204.154 17.09 203.77 17.09C202.882 17.09 202.198 16.85 201.718 16.37C201.238 15.89 200.998 15.212 200.998 14.336V8.612H199.306V7.532H200.998V5.462H202.276V7.532H205.156V8.612H202.276V14.264C202.276 14.828 202.414 15.26 202.69 15.56C202.978 15.848 203.386 15.992 203.914 15.992C204.178 15.992 204.43 15.95 204.67 15.866C204.922 15.782 205.138 15.662 205.318 15.506L205.768 16.424ZM212.103 11.564H216.819V12.68H212.103V11.564ZM231.085 8.666H227.503V17H226.225V8.666H222.643V7.532H231.085V8.666ZM236.4 17.09C235.488 17.09 234.666 16.886 233.934 16.478C233.202 16.058 232.626 15.482 232.206 14.75C231.786 14.018 231.576 13.19 231.576 12.266C231.576 11.342 231.786 10.514 232.206 9.782C232.626 9.05 233.202 8.48 233.934 8.072C234.666 7.664 235.488 7.46 236.4 7.46C237.312 7.46 238.134 7.664 238.866 8.072C239.598 8.48 240.168 9.05 240.576 9.782C240.996 10.514 241.206 11.342 241.206 12.266C241.206 13.19 240.996 14.018 240.576 14.75C240.168 15.482 239.598 16.058 238.866 16.478C238.134 16.886 237.312 17.09 236.4 17.09ZM236.4 15.956C237.072 15.956 237.672 15.806 238.2 15.506C238.74 15.194 239.16 14.756 239.46 14.192C239.76 13.628 239.91 12.986 239.91 12.266C239.91 11.546 239.76 10.904 239.46 10.34C239.16 9.776 238.74 9.344 238.2 9.044C237.672 8.732 237.072 8.576 236.4 8.576C235.728 8.576 235.122 8.732 234.582 9.044C234.054 9.344 233.634 9.776 233.322 10.34C233.022 10.904 232.872 11.546 232.872 12.266C232.872 12.986 233.022 13.628 233.322 14.192C233.634 14.756 234.054 15.194 234.582 15.506C235.122 15.806 235.728 15.956 236.4 15.956ZM251.624 7.532V17H250.346V8.666H245.81L245.684 11.006C245.588 12.974 245.36 14.486 245 15.542C244.64 16.598 243.998 17.126 243.074 17.126C242.822 17.126 242.516 17.078 242.156 16.982L242.246 15.884C242.462 15.932 242.612 15.956 242.696 15.956C243.188 15.956 243.56 15.728 243.812 15.272C244.064 14.816 244.232 14.252 244.316 13.58C244.4 12.908 244.472 12.02 244.532 10.916L244.694 7.532H251.624ZM268.325 7.532V17H255.257V7.532H256.535V15.884H261.179V7.532H262.457V15.884H267.047V7.532H268.325ZM269.783 15.884V19.07H268.577V17H266.975V15.884H269.783ZM271.974 7.532H273.252V15.056L279.57 7.532H280.704V17H279.426V9.476L273.126 17H271.974V7.532ZM284.367 7.532H285.645V11.726H291.603V7.532H292.881V17H291.603V12.824H285.645V17H284.367V7.532ZM299.771 7.46C301.007 7.46 301.955 7.772 302.615 8.396C303.275 9.008 303.605 9.92 303.605 11.132V17H302.381V15.524C302.093 16.016 301.667 16.4 301.103 16.676C300.551 16.952 299.891 17.09 299.123 17.09C298.067 17.09 297.227 16.838 296.603 16.334C295.979 15.83 295.667 15.164 295.667 14.336C295.667 13.532 295.955 12.884 296.531 12.392C297.119 11.9 298.049 11.654 299.321 11.654H302.327V11.078C302.327 10.262 302.099 9.644 301.643 9.224C301.187 8.792 300.521 8.576 299.645 8.576C299.045 8.576 298.469 8.678 297.917 8.882C297.365 9.074 296.891 9.344 296.495 9.692L295.919 8.738C296.399 8.33 296.975 8.018 297.647 7.802C298.319 7.574 299.027 7.46 299.771 7.46ZM299.321 16.082C300.041 16.082 300.659 15.92 301.175 15.596C301.691 15.26 302.075 14.78 302.327 14.156V12.608H299.357C297.737 12.608 296.927 13.172 296.927 14.3C296.927 14.852 297.137 15.29 297.557 15.614C297.977 15.926 298.565 16.082 299.321 16.082ZM319.458 7.532V17H318.18V8.666H313.644L313.518 11.006C313.422 12.974 313.194 14.486 312.834 15.542C312.474 16.598 311.832 17.126 310.908 17.126C310.656 17.126 310.35 17.078 309.99 16.982L310.08 15.884C310.296 15.932 310.446 15.956 310.53 15.956C311.022 15.956 311.394 15.728 311.646 15.272C311.898 14.816 312.066 14.252 312.15 13.58C312.234 12.908 312.306 12.02 312.366 10.916L312.528 7.532H319.458ZM323.091 7.532H324.369V15.056L330.687 7.532H331.821V17H330.543V9.476L324.243 17H323.091V7.532ZM339.444 17.09C338.508 17.09 337.668 16.886 336.924 16.478C336.192 16.07 335.616 15.5 335.196 14.768C334.776 14.024 334.566 13.19 334.566 12.266C334.566 11.342 334.776 10.514 335.196 9.782C335.616 9.05 336.192 8.48 336.924 8.072C337.668 7.664 338.508 7.46 339.444 7.46C340.26 7.46 340.986 7.622 341.622 7.946C342.27 8.258 342.78 8.72 343.152 9.332L342.198 9.98C341.886 9.512 341.49 9.164 341.01 8.936C340.53 8.696 340.008 8.576 339.444 8.576C338.76 8.576 338.142 8.732 337.59 9.044C337.05 9.344 336.624 9.776 336.312 10.34C336.012 10.904 335.862 11.546 335.862 12.266C335.862 12.998 336.012 13.646 336.312 14.21C336.624 14.762 337.05 15.194 337.59 15.506C338.142 15.806 338.76 15.956 339.444 15.956C340.008 15.956 340.53 15.842 341.01 15.614C341.49 15.386 341.886 15.038 342.198 14.57L343.152 15.218C342.78 15.83 342.27 16.298 341.622 16.622C340.974 16.934 340.248 17.09 339.444 17.09ZM352.111 8.666H348.529V17H347.251V8.666H343.669V7.532H352.111V8.666ZM357.217 7.46C358.453 7.46 359.401 7.772 360.061 8.396C360.721 9.008 361.051 9.92 361.051 11.132V17H359.827V15.524C359.539 16.016 359.113 16.4 358.549 16.676C357.997 16.952 357.337 17.09 356.569 17.09C355.513 17.09 354.673 16.838 354.049 16.334C353.425 15.83 353.113 15.164 353.113 14.336C353.113 13.532 353.401 12.884 353.977 12.392C354.565 11.9 355.495 11.654 356.767 11.654H359.773V11.078C359.773 10.262 359.545 9.644 359.089 9.224C358.633 8.792 357.967 8.576 357.091 8.576C356.491 8.576 355.915 8.678 355.363 8.882C354.811 9.074 354.337 9.344 353.941 9.692L353.365 8.738C353.845 8.33 354.421 8.018 355.093 7.802C355.765 7.574 356.473 7.46 357.217 7.46ZM356.767 16.082C357.487 16.082 358.105 15.92 358.621 15.596C359.137 15.26 359.521 14.78 359.773 14.156V12.608H356.803C355.183 12.608 354.373 13.172 354.373 14.3C354.373 14.852 354.583 15.29 355.003 15.614C355.423 15.926 356.011 16.082 356.767 16.082Z" fill="#0075FF"/>
</svg>
